<svg width="18" height="18" viewBox="0 0 18 18" fill="none" xmlns="http://www.w3.org/2000/svg">
<path d="M7.30745 1.27985C7.84019 -0.426617 10.1598 -0.426619 10.6926 1.27985L11.5971 4.17735C11.8354 4.94051 12.5187 5.45721 13.2897 5.45721H16.2169C17.9409 5.45721 18.6577 7.75325 17.263 8.80791L14.8948 10.5987C14.271 11.0703 14.01 11.9064 14.2483 12.6695L15.1529 15.567C15.6856 17.2735 13.809 18.6925 12.4143 17.6379L10.0461 15.8471C9.42231 15.3754 8.57769 15.3754 7.95394 15.8471L5.58575 17.6379C4.19101 18.6925 2.31439 17.2735 2.84714 15.567L3.75171 12.6695C3.98996 11.9064 3.72896 11.0703 3.10521 10.5987L0.737012 8.80791C-0.657729 7.75325 0.0590717 5.45721 1.78307 5.45721H4.71032C5.48131 5.45721 6.16462 4.94051 6.40287 4.17736L7.30745 1.27985Z" fill="#FFBB44"/>
</svg>
