<svg width="24" height="24" viewBox="0 0 24 24" fill="none" xmlns="http://www.w3.org/2000/svg">
<path d="M4.50956 15.4369C5.17242 15.6104 6.73586 15.6087 9.01941 15.6694C8.9101 16.1674 8.8858 16.6168 8.8858 17.415C8.8858 19.3203 10.274 21 11.5025 21C12.3701 21 13.0868 20.2903 13.0972 19.4192C13.1093 18.3486 13.439 16.5023 15.2228 15.5653C15.353 15.4959 15.7278 15.3119 15.7816 15.2876L15.7538 15.2633C16.0332 15.5028 16.4202 15.6885 16.8158 15.6885H18.4105C19.2902 15.6885 20.0051 14.9736 20.0051 14.0938V5.59294C20.0051 4.71491 19.2902 4 18.4105 4H16.8158C16.1842 4 15.6549 4.38175 15.3981 4.9162C15.3929 4.91446 15.3808 4.91099 15.3738 4.90926C15.3391 4.90058 15.2975 4.89017 15.2471 4.87629C15.2385 4.87455 15.2333 4.87282 15.2228 4.87108C14.9157 4.79473 14.3275 4.65418 13.0677 4.3644C12.797 4.30366 11.3724 4 9.89397 4H6.9892C6.1025 4 5.44659 4.32969 5.08566 5.02378C4.73341 5.64152 2.99818 8.94886 2.99992 13.6114C3.00165 14.2829 3.46669 15.1384 4.50956 15.4369ZM16.2865 5.59294C16.2865 5.29968 16.5243 5.06196 16.8175 5.06196H18.4122C18.7054 5.06196 18.9432 5.29968 18.9432 5.59294V14.0921C18.9432 14.3853 18.7054 14.623 18.4122 14.623H16.8175C16.5243 14.623 16.2865 14.3853 16.2865 14.0921V5.59294ZM4.07576 13.2782C4.29787 7.93896 6.02268 5.52526 6.02268 5.52526C6.18406 5.23548 6.44261 5.06196 6.99094 5.06196H9.8957C11.355 5.06196 12.8022 5.39339 12.8404 5.40033C15.0476 5.90875 15.1638 5.94866 15.3027 5.98683L15.2246 13.7919C15.2246 14.5988 15.2055 14.3957 15.2246 14.3853C12.797 15.3918 12.0578 17.5955 12.0352 19.4053C12.0318 19.6587 11.8357 19.9363 11.5043 19.9363C10.942 19.9363 9.9495 18.8084 9.9495 17.4133C9.9495 16.1535 9.99982 15.9349 10.4423 14.623C5.1273 14.623 5.16548 14.5467 4.69697 14.4235C4.11567 14.2569 4.06535 13.7763 4.06535 13.6097C4.06361 13.4292 4.07055 13.4552 4.07576 13.2782Z" fill="white"/>
</svg>
