<svg width="24" height="24" viewBox="0 0 24 24" fill="none" xmlns="http://www.w3.org/2000/svg">
<path d="M18.4956 9.56313C17.8327 9.38961 16.2693 9.39134 13.9857 9.33061C14.095 8.8326 14.1193 8.38318 14.1193 7.58497C14.1193 5.6797 12.7311 4 11.5026 4C10.635 4 9.91834 4.70971 9.90793 5.58079C9.89579 6.65142 9.56609 8.4977 7.78228 9.43472C7.65214 9.50413 7.27733 9.68807 7.22354 9.71236L7.2513 9.73665C6.97193 9.49719 6.58498 9.31152 6.18934 9.31152H4.59467C3.71491 9.31152 3 10.0264 3 10.9062V19.4071C3 20.2851 3.71491 21 4.59467 21H6.18934C6.82097 21 7.35021 20.6183 7.60702 20.0838C7.61223 20.0855 7.62438 20.089 7.63132 20.0907C7.66602 20.0994 7.70767 20.1098 7.75799 20.1237C7.76666 20.1254 7.77187 20.1272 7.78228 20.1289C8.08942 20.2053 8.67766 20.3458 9.93743 20.6356C10.2081 20.6963 11.6327 21 13.1112 21H16.0159C16.9026 21 17.5585 20.6703 17.9195 19.9762C18.2717 19.3585 20.0069 16.0511 20.0052 11.3886C20.0035 10.7171 19.5384 9.86159 18.4956 9.56313ZM6.71859 19.4071C6.71859 19.7003 6.48086 19.938 6.18761 19.938H4.59294C4.29968 19.938 4.06196 19.7003 4.06196 19.4071V10.9079C4.06196 10.6147 4.29968 10.377 4.59294 10.377H6.18761C6.48086 10.377 6.71859 10.6147 6.71859 10.9079V19.4071ZM18.9294 11.7218C18.7073 17.061 16.9824 19.4747 16.9824 19.4747C16.8211 19.7645 16.5625 19.938 16.0142 19.938H13.1094C11.6501 19.938 10.2029 19.6066 10.1647 19.5997C7.95754 19.0913 7.84128 19.0513 7.70246 19.0132L7.78055 11.2081C7.78055 10.4012 7.79963 10.6043 7.78055 10.6147C10.2081 9.60825 10.9473 7.40451 10.9699 5.59467C10.9734 5.34133 11.1694 5.06369 11.5009 5.06369C12.0631 5.06369 13.0556 6.19159 13.0556 7.58671C13.0556 8.84648 13.0053 9.06512 12.5628 10.377C17.8778 10.377 17.8396 10.4533 18.3082 10.5765C18.8895 10.7431 18.9398 11.2237 18.9398 11.3903C18.9415 11.5708 18.9346 11.5448 18.9294 11.7218Z" fill="white"/>
</svg>
