<svg width="40" height="40" viewBox="0 0 40 40" fill="none" xmlns="http://www.w3.org/2000/svg">
<circle cx="20" cy="20" r="20" fill="white"/>
<path d="M8.68317 22.6132C8.64187 22.6452 8.61768 22.6945 8.61768 22.7467V29.7657C8.61768 30.194 8.96489 30.5413 9.39322 30.5413H31.4906C31.5857 30.5413 31.6253 30.4196 31.5484 30.3636L16.2148 23.0196C15.8882 22.8631 15.7035 22.4975 15.7978 22.1478C15.8399 21.9915 15.9324 21.8464 16.0749 21.739L18.8031 19.6094" fill="#4C6BFF"/>
<path d="M31.2494 26.5332L21.899 21.1765C21.8767 21.1637 21.8532 21.1531 21.8294 21.1435C21.1201 20.8577 21.0279 19.8912 21.6565 19.4728C21.6937 19.448 21.7348 19.4292 21.7774 19.4155L31.3457 14.1942C31.6691 14.0907 31.9997 14.3319 31.9997 14.6715V26.0983C31.9997 26.4833 31.5835 26.7246 31.2494 26.5332Z" fill="#333548"/>
<path d="M19.0117 9.49402L8.68338 17.4876C8.64209 17.5195 8.61792 17.5688 8.61792 17.621V19.1073C8.61792 19.2472 8.7784 19.3264 8.88942 19.2412L21.2446 9.7614C21.3725 9.66323 21.3031 9.45871 21.1418 9.45871H19.115C19.0776 9.45871 19.0412 9.47114 19.0117 9.49402Z" fill="#2B50FF"/>
<path d="M12.5001 9.49682L8.67982 12.6224C8.64063 12.6545 8.61792 12.7024 8.61792 12.7531V13.9834C8.61792 14.123 8.77773 14.2022 8.88886 14.1177L14.6176 9.76181C14.7462 9.66395 14.677 9.45867 14.5154 9.45867H12.607C12.568 9.45867 12.5302 9.47214 12.5001 9.49682Z" fill="#2B50FF"/>
<path d="M18.6838 19.7087L31.535 9.63765C31.614 9.58274 31.5751 9.45875 31.4789 9.45875H25.7378C25.7004 9.45875 25.664 9.47116 25.6345 9.49404L8.68335 22.6133" fill="#2B50FF"/>
</svg>
