<svg width="100" height="100" viewBox="0 0 100 100" fill="none" xmlns="http://www.w3.org/2000/svg">
<g clip-path="url(#clip0_20_7940)">
<circle cx="50.414" cy="50.4141" r="47.8865" transform="rotate(-90 50.414 50.4141)" fill="#D6F1E1"/>
<path d="M2.52768 50.414C2.52768 59.8851 5.33617 69.1434 10.598 77.0183C15.8598 84.8932 23.3387 91.0309 32.0888 94.6553C40.8389 98.2797 50.4673 99.2281 59.7563 97.3803C69.0454 95.5326 77.5779 90.9719 84.275 84.2748C90.972 77.5778 95.5328 69.0453 97.3805 59.7562C99.2282 50.4671 98.2799 40.8388 94.6554 32.0887C91.031 23.3385 84.8933 15.8597 77.0184 10.5979C69.1435 5.33605 59.8852 2.52756 50.4141 2.52756L50.4141 50.414L2.52768 50.414Z" fill="#33B868"/>
<circle cx="50.4139" cy="50.4139" r="40.7035" transform="rotate(-90 50.4139 50.4139)" fill="white"/>
</g>
<defs>
<clipPath id="clip0_20_7940">
<rect width="100" height="100" fill="white"/>
</clipPath>
</defs>
</svg>
