<svg width="18" height="18" viewBox="0 0 18 18" fill="none" xmlns="http://www.w3.org/2000/svg">
<path d="M3.17886 9.20212C3.17886 9.49705 3.06408 9.77991 2.85977 9.98846C2.65547 10.197 2.37837 10.3142 2.08943 10.3142C1.8005 10.3142 1.52339 10.197 1.31909 9.98846C1.11478 9.77991 1 9.49705 1 9.20212C1.0006 7.64582 1.43716 6.12214 2.25819 4.81077C3.07923 3.4994 4.25049 2.45502 5.63388 1.8008C7.01726 1.14657 8.55506 0.909774 10.0659 1.11834C11.5768 1.3269 12.9978 1.97212 14.1612 2.97791V2.11206C14.1612 1.81712 14.276 1.53427 14.4803 1.32571C14.6846 1.11716 14.9617 1 15.2507 1C15.5396 1 15.8167 1.11716 16.021 1.32571C16.2253 1.53427 16.3401 1.81712 16.3401 2.11206V5.61836C16.3401 5.91183 16.2259 6.19328 16.0226 6.40079C15.8193 6.60831 15.5436 6.72489 15.2561 6.72489L11.9512 7.03886C11.8093 7.05194 11.6663 7.03636 11.5303 6.99301C11.3942 6.94965 11.2679 6.87938 11.1585 6.7862C11.0491 6.69302 10.9588 6.57875 10.8926 6.44993C10.8265 6.3211 10.7858 6.18024 10.773 6.03538C10.7602 5.89053 10.7755 5.74451 10.818 5.60568C10.8604 5.46684 10.9293 5.3379 11.0206 5.22623C11.1118 5.11455 11.2238 5.02232 11.35 4.9548C11.4762 4.88729 11.6142 4.84581 11.7561 4.83273L12.8401 4.73176C11.998 3.98034 10.9618 3.49221 9.85525 3.32569C8.74871 3.15916 7.61859 3.32126 6.59986 3.79264C5.58114 4.26401 4.71686 5.02474 4.11023 5.98397C3.50361 6.9432 3.18028 8.06039 3.17886 9.20212V9.20212ZM6.26423 11.9131C6.55172 11.8867 6.83773 11.9779 7.05931 12.1668C7.2809 12.3556 7.41992 12.6266 7.4458 12.92C7.47167 13.2135 7.38228 13.5055 7.19729 13.7316C7.01229 13.9578 6.74685 14.0997 6.45935 14.1262L5.0935 14.252C5.9291 15.0249 6.96667 15.5334 8.08008 15.7156C9.19349 15.8978 10.3348 15.7459 11.3652 15.2784C12.3956 14.8109 13.2708 14.0479 13.8843 13.0821C14.4979 12.1163 14.8233 10.9894 14.8211 9.83837C14.8211 9.54343 14.9359 9.26058 15.1402 9.05203C15.3445 8.84348 15.6216 8.72631 15.9106 8.72631C16.1995 8.72631 16.4766 8.84348 16.6809 9.05203C16.8852 9.26058 17 9.54343 17 9.83837C17.0002 11.3745 16.5756 12.8795 15.7752 14.1802C14.9747 15.481 13.8308 16.5247 12.475 17.1914C11.1193 17.8581 9.60674 18.1206 8.11132 17.9488C6.6159 17.777 5.19835 17.1779 4.02168 16.2203V16.7984C4.02168 17.0934 3.9069 17.3762 3.70259 17.5848C3.49829 17.7933 3.22118 17.9105 2.93225 17.9105C2.64331 17.9105 2.36621 17.7933 2.16191 17.5848C1.9576 17.3762 1.84282 17.0934 1.84282 16.7984V13.335C1.84175 13.0578 1.94266 12.7902 2.12558 12.5853C2.3085 12.3804 2.56011 12.2531 2.83062 12.2285L6.26016 11.9103L6.26423 11.9131Z" fill="#2B50FF"/>
</svg>
