<svg width="18" height="17" viewBox="0 0 18 17" fill="none" xmlns="http://www.w3.org/2000/svg">
<path d="M1.50932 11.4369C2.17218 11.6104 3.73561 11.6087 6.01917 11.6694C5.90985 12.1674 5.88556 12.6168 5.88556 13.415C5.88556 15.3203 7.27374 17 8.50228 17C9.36989 17 10.0865 16.2903 10.097 15.4192C10.1091 14.3486 10.4388 12.5023 12.2226 11.5653C12.3527 11.4959 12.7276 11.3119 12.7813 11.2876L12.7536 11.2633C13.033 11.5028 13.4199 11.6885 13.8155 11.6885H15.4102C16.29 11.6885 17.0049 10.9736 17.0049 10.0938V1.59294C17.0049 0.714912 16.29 0 15.4102 0H13.8155C13.1839 0 12.6547 0.38175 12.3979 0.916199C12.3927 0.914463 12.3805 0.910992 12.3736 0.909256C12.3389 0.900579 12.2972 0.890169 12.2469 0.876287C12.2382 0.874552 12.233 0.872818 12.2226 0.871082C11.9155 0.794733 11.3272 0.654181 10.0675 0.364397C9.79676 0.303663 8.37214 0 6.89372 0H3.98896C3.10226 0 2.44634 0.329691 2.08541 1.02378C1.73316 1.64152 -0.00206184 4.94886 -0.000326157 9.61141C0.00140953 10.2829 0.46645 11.1384 1.50932 11.4369ZM13.2863 1.59294C13.2863 1.29968 13.524 1.06196 13.8173 1.06196H15.4119C15.7052 1.06196 15.9429 1.29968 15.9429 1.59294V10.0921C15.9429 10.3853 15.7052 10.623 15.4119 10.623H13.8173C13.524 10.623 13.2863 10.3853 13.2863 10.0921V1.59294ZM1.07551 9.27825C1.29762 3.93896 3.02244 1.52526 3.02244 1.52526C3.18381 1.23548 3.44236 1.06196 3.99069 1.06196H6.89546C8.35478 1.06196 9.80196 1.39338 9.84014 1.40033C12.0473 1.90875 12.1636 1.94866 12.3024 1.98683L12.2243 9.79187C12.2243 10.5988 12.2052 10.3957 12.2243 10.3853C9.79676 11.3918 9.05755 13.5955 9.03499 15.4053C9.03152 15.6587 8.83544 15.9363 8.50401 15.9363C7.9418 15.9363 6.94925 14.8084 6.94925 13.4133C6.94925 12.1535 6.99957 11.9349 7.44206 10.623C2.12706 10.623 2.16524 10.5467 1.69672 10.4235C1.11542 10.2569 1.0651 9.77626 1.0651 9.60968C1.06337 9.42921 1.07031 9.45524 1.07551 9.27825Z" fill="white"/>
</svg>
