<svg width="16" height="14" viewBox="0 0 16 14" fill="none" xmlns="http://www.w3.org/2000/svg">
<path d="M8 13.4555C7.80069 13.4555 7.60854 13.3833 7.45879 13.2521C6.89322 12.7576 6.34795 12.2929 5.86687 11.8829L5.86441 11.8808C4.45396 10.6788 3.23599 9.64084 2.38855 8.61833C1.44124 7.47523 1 6.39142 1 5.20741C1 4.05705 1.39445 2.99577 2.11063 2.21893C2.83534 1.43291 3.82976 1 4.91101 1C5.71915 1 6.45924 1.25549 7.11069 1.75932C7.43945 2.01364 7.73746 2.32489 8 2.68794C8.26265 2.32489 8.56055 2.01364 8.88942 1.75932C9.54086 1.25549 10.281 1 11.0891 1C12.1702 1 13.1648 1.43291 13.8895 2.21893C14.6057 2.99577 15 4.05705 15 5.20741C15 6.39142 14.5589 7.47523 13.6116 8.61823C12.7641 9.64084 11.5462 10.6787 10.136 11.8806C9.65408 12.2912 9.10796 12.7566 8.54111 13.2523C8.39146 13.3833 8.1992 13.4555 8 13.4555ZM4.91101 1.8201C4.06154 1.8201 3.28117 2.15912 2.71347 2.77478C2.13733 3.39973 1.81999 4.26363 1.81999 5.20741C1.81999 6.20322 2.19009 7.09381 3.01991 8.09506C3.82196 9.06288 5.01494 10.0795 6.39622 11.2567L6.39879 11.2588C6.88168 11.6704 7.42909 12.1369 7.99883 12.6351C8.57198 12.136 9.12024 11.6687 9.6041 11.2565C10.9853 10.0793 12.1781 9.06288 12.9802 8.09506C13.8099 7.09381 14.18 6.20322 14.18 5.20741C14.18 4.26363 13.8627 3.39973 13.2865 2.77478C12.7189 2.15912 11.9385 1.8201 11.0891 1.8201C10.4668 1.8201 9.89548 2.01791 9.39101 2.40799C8.94144 2.75577 8.62827 3.1954 8.44466 3.50302C8.35023 3.66121 8.18404 3.75563 8 3.75563C7.81596 3.75563 7.64977 3.66121 7.55534 3.50302C7.37184 3.1954 7.05867 2.75577 6.60899 2.40799C6.10452 2.01791 5.53319 1.8201 4.91101 1.8201Z" fill="#1E2331" stroke="#1E202B" stroke-width="0.3"/>
</svg>
