<svg width="94" height="28" viewBox="0 0 94 28" fill="none" xmlns="http://www.w3.org/2000/svg">
<g clip-path="url(#clip0_1389_3342)">
<path d="M0 17.5675L0.562874 17.2025" stroke="#33B868" stroke-width="2" stroke-miterlimit="10" stroke-linecap="round"/>
<path d="M0.562988 17.2025L1.12586 17.571" stroke="#33B868" stroke-width="2" stroke-miterlimit="10" stroke-linecap="round"/>
<path d="M1.12598 17.571L1.68885 18.9879" stroke="#33B868" stroke-width="2" stroke-miterlimit="10" stroke-linecap="round"/>
<path d="M1.68896 18.988L2.25184 17.6172" stroke="#33B868" stroke-width="2" stroke-miterlimit="10" stroke-linecap="round"/>
<path d="M2.25146 17.6172L2.81434 18.2563" stroke="#33B868" stroke-width="2" stroke-miterlimit="10" stroke-linecap="round"/>
<path d="M2.81494 18.2561L3.37782 17.1173" stroke="#33B868" stroke-width="2" stroke-miterlimit="10" stroke-linecap="round"/>
<path d="M3.37695 17.1173L3.93983 17.2839" stroke="#33B868" stroke-width="2" stroke-miterlimit="10" stroke-linecap="round"/>
<path d="M3.93994 17.2841L4.50282 17.6689" stroke="#33B868" stroke-width="2" stroke-miterlimit="10" stroke-linecap="round"/>
<path d="M4.50293 17.6687L5.0658 17.9118" stroke="#33B868" stroke-width="2" stroke-miterlimit="10" stroke-linecap="round"/>
<path d="M5.06592 17.9121L5.62879 18.4392" stroke="#33B868" stroke-width="2" stroke-miterlimit="10" stroke-linecap="round"/>
<path d="M5.62891 18.439L6.19178 17.9478" stroke="#33B868" stroke-width="2" stroke-miterlimit="10" stroke-linecap="round"/>
<path d="M6.19141 17.9478L6.75428 22.9072" stroke="#33B868" stroke-width="2" stroke-miterlimit="10" stroke-linecap="round"/>
<path d="M6.75488 22.9072L7.31776 21.8657" stroke="#33B868" stroke-width="2" stroke-miterlimit="10" stroke-linecap="round"/>
<path d="M7.31738 21.866L7.88026 21.8478" stroke="#33B868" stroke-width="2" stroke-miterlimit="10" stroke-linecap="round"/>
<path d="M7.88037 21.8478L8.44325 22.6266" stroke="#33B868" stroke-width="2" stroke-miterlimit="10" stroke-linecap="round"/>
<path d="M8.44336 22.6264L9.00623 23.3006" stroke="#33B868" stroke-width="2" stroke-miterlimit="10" stroke-linecap="round"/>
<path d="M9.00586 23.3007L9.56873 24.4009" stroke="#33B868" stroke-width="2" stroke-miterlimit="10" stroke-linecap="round"/>
<path d="M9.56885 24.4011L10.1317 21.4926" stroke="#33B868" stroke-width="2" stroke-miterlimit="10" stroke-linecap="round"/>
<path d="M10.1318 21.4922L10.6947 20.239" stroke="#33B868" stroke-width="2" stroke-miterlimit="10" stroke-linecap="round"/>
<path d="M10.6948 20.2391L11.2577 18.9811" stroke="#33B868" stroke-width="2" stroke-miterlimit="10" stroke-linecap="round"/>
<path d="M11.2573 18.981L11.8202 18.8472" stroke="#33B868" stroke-width="2" stroke-miterlimit="10" stroke-linecap="round"/>
<path d="M11.8208 18.8474L12.3837 18.746" stroke="#33B868" stroke-width="2" stroke-miterlimit="10" stroke-linecap="round"/>
<path d="M12.3833 18.746L12.9462 20.1308" stroke="#33B868" stroke-width="2" stroke-miterlimit="10" stroke-linecap="round"/>
<path d="M12.9463 20.1309L13.5092 19.7851" stroke="#33B868" stroke-width="2" stroke-miterlimit="10" stroke-linecap="round"/>
<path d="M13.5093 19.7847L14.0722 19.2314" stroke="#33B868" stroke-width="2" stroke-miterlimit="10" stroke-linecap="round"/>
<path d="M14.0718 19.2314L14.6347 19.5051" stroke="#33B868" stroke-width="2" stroke-miterlimit="10" stroke-linecap="round"/>
<path d="M14.6348 19.5051L15.1976 21.1169" stroke="#33B868" stroke-width="2" stroke-miterlimit="10" stroke-linecap="round"/>
<path d="M15.1973 21.1171L15.7601 22.3369" stroke="#33B868" stroke-width="2" stroke-miterlimit="10" stroke-linecap="round"/>
<path d="M15.7607 22.3369L16.3236 23.2474" stroke="#33B868" stroke-width="2" stroke-miterlimit="10" stroke-linecap="round"/>
<path d="M16.3232 23.2476L16.8861 23.4065" stroke="#33B868" stroke-width="2" stroke-miterlimit="10" stroke-linecap="round"/>
<path d="M16.8862 23.4062L17.4491 22.5052" stroke="#33B868" stroke-width="2" stroke-miterlimit="10" stroke-linecap="round"/>
<path d="M17.4492 22.5052L18.0121 23.5278" stroke="#33B868" stroke-width="2" stroke-miterlimit="10" stroke-linecap="round"/>
<path d="M18.0122 23.5278L18.5751 24.5351" stroke="#33B868" stroke-width="2" stroke-miterlimit="10" stroke-linecap="round"/>
<path d="M18.5752 24.5351L19.1381 23.4966" stroke="#33B868" stroke-width="2" stroke-miterlimit="10" stroke-linecap="round"/>
<path d="M19.1382 23.4969L19.7011 22.9886" stroke="#33B868" stroke-width="2" stroke-miterlimit="10" stroke-linecap="round"/>
<path d="M19.7007 22.9886L20.2636 23.1635" stroke="#33B868" stroke-width="2" stroke-miterlimit="10" stroke-linecap="round"/>
<path d="M20.2632 23.1636L20.8261 22.6583" stroke="#33B868" stroke-width="2" stroke-miterlimit="10" stroke-linecap="round"/>
<path d="M20.8271 22.6583L21.39 24.3935" stroke="#33B868" stroke-width="2" stroke-miterlimit="10" stroke-linecap="round"/>
<path d="M21.3892 24.3933L21.952 23.6538" stroke="#33B868" stroke-width="2" stroke-miterlimit="10" stroke-linecap="round"/>
<path d="M21.9521 23.654L22.515 21.5314" stroke="#33B868" stroke-width="2" stroke-miterlimit="10" stroke-linecap="round"/>
<path d="M22.5156 21.5312L23.0785 20.653" stroke="#33B868" stroke-width="2" stroke-miterlimit="10" stroke-linecap="round"/>
<path d="M23.0781 20.653L23.641 24.3311" stroke="#33B868" stroke-width="2" stroke-miterlimit="10" stroke-linecap="round"/>
<path d="M23.6411 24.331L24.204 24.3177" stroke="#33B868" stroke-width="2" stroke-miterlimit="10" stroke-linecap="round"/>
<path d="M24.2036 24.3177L24.7665 25.1611" stroke="#33B868" stroke-width="2" stroke-miterlimit="10" stroke-linecap="round"/>
<path d="M24.7671 25.1612L25.33 27.5121" stroke="#33B868" stroke-width="2" stroke-miterlimit="10" stroke-linecap="round"/>
<path d="M25.3291 27.5122L25.892 27.0406" stroke="#33B868" stroke-width="2" stroke-miterlimit="10" stroke-linecap="round"/>
<path d="M25.8921 27.0407L26.455 23.9485" stroke="#33B868" stroke-width="2" stroke-miterlimit="10" stroke-linecap="round"/>
<path d="M26.4556 23.9485L27.0184 24.6651" stroke="#33B868" stroke-width="2" stroke-miterlimit="10" stroke-linecap="round"/>
<path d="M27.0181 24.6652L27.5809 25.0536" stroke="#33B868" stroke-width="2" stroke-miterlimit="10" stroke-linecap="round"/>
<path d="M27.5806 25.0535L28.1434 24.3214" stroke="#33B868" stroke-width="2" stroke-miterlimit="10" stroke-linecap="round"/>
<path d="M28.1445 24.3214L28.7074 25.7313" stroke="#33B868" stroke-width="2" stroke-miterlimit="10" stroke-linecap="round"/>
<path d="M28.707 25.7313L29.2699 24.5172" stroke="#33B868" stroke-width="2" stroke-miterlimit="10" stroke-linecap="round"/>
<path d="M29.2695 24.5172L29.8324 25.943" stroke="#33B868" stroke-width="2" stroke-miterlimit="10" stroke-linecap="round"/>
<path d="M29.8335 25.943L30.3964 25.3386" stroke="#33B868" stroke-width="2" stroke-miterlimit="10" stroke-linecap="round"/>
<path d="M30.395 25.3385L30.9579 24.3799" stroke="#33B868" stroke-width="2" stroke-miterlimit="10" stroke-linecap="round"/>
<path d="M30.958 24.3801L31.5209 24.1859" stroke="#33B868" stroke-width="2" stroke-miterlimit="10" stroke-linecap="round"/>
<path d="M31.5215 24.1859L32.0844 24.5511" stroke="#33B868" stroke-width="2" stroke-miterlimit="10" stroke-linecap="round"/>
<path d="M32.084 24.5511L32.6469 24.0227" stroke="#33B868" stroke-width="2" stroke-miterlimit="10" stroke-linecap="round"/>
<path d="M32.647 24.0227L33.2098 24.062" stroke="#33B868" stroke-width="2" stroke-miterlimit="10" stroke-linecap="round"/>
<path d="M33.2095 24.0619L33.7723 23.9861" stroke="#33B868" stroke-width="2" stroke-miterlimit="10" stroke-linecap="round"/>
<path d="M33.7734 23.9861L34.3363 24.2313" stroke="#33B868" stroke-width="2" stroke-miterlimit="10" stroke-linecap="round"/>
<path d="M34.3354 24.2311L34.8983 24.5482" stroke="#33B868" stroke-width="2" stroke-miterlimit="10" stroke-linecap="round"/>
<path d="M34.8984 24.5486L35.4613 24.4627" stroke="#33B868" stroke-width="2" stroke-miterlimit="10" stroke-linecap="round"/>
<path d="M35.4619 24.4627L36.0248 24.2794" stroke="#33B868" stroke-width="2" stroke-miterlimit="10" stroke-linecap="round"/>
<path d="M36.0239 24.2791L36.5868 23.2365" stroke="#33B868" stroke-width="2" stroke-miterlimit="10" stroke-linecap="round"/>
<path d="M36.5864 23.2364L37.1493 22.6415" stroke="#33B868" stroke-width="2" stroke-miterlimit="10" stroke-linecap="round"/>
<path d="M37.1504 22.6415L37.7133 23.3864" stroke="#33B868" stroke-width="2" stroke-miterlimit="10" stroke-linecap="round"/>
<path d="M37.7129 23.3865L38.2758 23.0422" stroke="#33B868" stroke-width="2" stroke-miterlimit="10" stroke-linecap="round"/>
<path d="M38.2754 23.0422L38.8383 23.4616" stroke="#33B868" stroke-width="2" stroke-miterlimit="10" stroke-linecap="round"/>
<path d="M38.8394 23.4617L39.4022 23.8769" stroke="#33B868" stroke-width="2" stroke-miterlimit="10" stroke-linecap="round"/>
<path d="M39.4019 23.8769L39.9647 23.2181" stroke="#33B868" stroke-width="2" stroke-miterlimit="10" stroke-linecap="round"/>
<path d="M39.9644 23.2181L40.5272 22.9571" stroke="#33B868" stroke-width="2" stroke-miterlimit="10" stroke-linecap="round"/>
<path d="M40.5278 22.9571L41.0907 23.0851" stroke="#33B868" stroke-width="2" stroke-miterlimit="10" stroke-linecap="round"/>
<path d="M41.0908 23.0851L41.6537 23.0217" stroke="#33B868" stroke-width="2" stroke-miterlimit="10" stroke-linecap="round"/>
<path d="M41.6528 23.0217L42.2157 23.0545" stroke="#33B868" stroke-width="2" stroke-miterlimit="10" stroke-linecap="round"/>
<path d="M42.2153 23.0548L42.7782 22.8755" stroke="#33B868" stroke-width="2" stroke-miterlimit="10" stroke-linecap="round"/>
<path d="M42.7793 22.8755L43.3422 23.0143" stroke="#33B868" stroke-width="2" stroke-miterlimit="10" stroke-linecap="round"/>
<path d="M43.3413 23.0142L43.9042 23.6132" stroke="#33B868" stroke-width="2" stroke-miterlimit="10" stroke-linecap="round"/>
<path d="M43.9043 23.613L44.4672 23.8645" stroke="#33B868" stroke-width="2" stroke-miterlimit="10" stroke-linecap="round"/>
<path d="M44.4678 23.8645L45.0306 23.3528" stroke="#33B868" stroke-width="2" stroke-miterlimit="10" stroke-linecap="round"/>
<path d="M45.0303 23.3528L45.5931 23.504" stroke="#33B868" stroke-width="2" stroke-miterlimit="10" stroke-linecap="round"/>
<path d="M45.5928 23.504L46.1556 23.075" stroke="#33B868" stroke-width="2" stroke-miterlimit="10" stroke-linecap="round"/>
<path d="M46.1567 23.0748L46.7196 22.925" stroke="#33B868" stroke-width="2" stroke-miterlimit="10" stroke-linecap="round"/>
<path d="M46.7197 22.925L47.2826 23.1821" stroke="#33B868" stroke-width="2" stroke-miterlimit="10" stroke-linecap="round"/>
<path d="M47.2812 23.1823L47.8441 22.5995" stroke="#33B868" stroke-width="2" stroke-miterlimit="10" stroke-linecap="round"/>
<path d="M47.8457 22.5995L48.4086 23.1986" stroke="#33B868" stroke-width="2" stroke-miterlimit="10" stroke-linecap="round"/>
<path d="M48.4077 23.1986L48.9706 22.1519" stroke="#33B868" stroke-width="2" stroke-miterlimit="10" stroke-linecap="round"/>
<path d="M48.9702 22.1519L49.5331 21.6409" stroke="#33B868" stroke-width="2" stroke-miterlimit="10" stroke-linecap="round"/>
<path d="M49.5327 21.6408L50.0956 20.3931" stroke="#33B868" stroke-width="2" stroke-miterlimit="10" stroke-linecap="round"/>
<path d="M50.0967 20.3931L50.6596 20.7752" stroke="#33B868" stroke-width="2" stroke-miterlimit="10" stroke-linecap="round"/>
<path d="M50.6587 20.7753L51.2216 20.8061" stroke="#33B868" stroke-width="2" stroke-miterlimit="10" stroke-linecap="round"/>
<path d="M51.2217 20.8061L51.7846 21.4107" stroke="#33B868" stroke-width="2" stroke-miterlimit="10" stroke-linecap="round"/>
<path d="M51.7856 21.4107L52.3485 21.0644" stroke="#33B868" stroke-width="2" stroke-miterlimit="10" stroke-linecap="round"/>
<path d="M52.3481 21.0644L52.911 21.5355" stroke="#33B868" stroke-width="2" stroke-miterlimit="10" stroke-linecap="round"/>
<path d="M52.9102 21.5355L53.473 21.7513" stroke="#33B868" stroke-width="2" stroke-miterlimit="10" stroke-linecap="round"/>
<path d="M53.4736 21.7512L54.0365 22.2385" stroke="#33B868" stroke-width="2" stroke-miterlimit="10" stroke-linecap="round"/>
<path d="M54.0366 22.2385L54.5995 21.987" stroke="#33B868" stroke-width="2" stroke-miterlimit="10" stroke-linecap="round"/>
<path d="M54.5986 21.9874L55.1615 21.4942" stroke="#33B868" stroke-width="2" stroke-miterlimit="10" stroke-linecap="round"/>
<path d="M55.1616 21.4941L55.7245 19.9039" stroke="#33B868" stroke-width="2" stroke-miterlimit="10" stroke-linecap="round"/>
<path d="M55.7256 19.9038L56.2885 19.8278" stroke="#33B868" stroke-width="2" stroke-miterlimit="10" stroke-linecap="round"/>
<path d="M56.2876 19.8278L56.8505 20.8291" stroke="#33B868" stroke-width="2" stroke-miterlimit="10" stroke-linecap="round"/>
<path d="M56.8506 20.8292L57.4135 18.3641" stroke="#33B868" stroke-width="2" stroke-miterlimit="10" stroke-linecap="round"/>
<path d="M57.4141 18.3641L57.9769 14.6274" stroke="#33B868" stroke-width="2" stroke-miterlimit="10" stroke-linecap="round"/>
<path d="M57.9761 14.6272L58.5389 13.5439" stroke="#33B868" stroke-width="2" stroke-miterlimit="10" stroke-linecap="round"/>
<path d="M58.5386 13.5439L59.1014 13.7559" stroke="#33B868" stroke-width="2" stroke-miterlimit="10" stroke-linecap="round"/>
<path d="M59.1025 13.7561L59.6654 12.9648" stroke="#33B868" stroke-width="2" stroke-miterlimit="10" stroke-linecap="round"/>
<path d="M59.665 12.9648L60.2279 10.9565" stroke="#33B868" stroke-width="2" stroke-miterlimit="10" stroke-linecap="round"/>
<path d="M60.2275 10.9565L60.7904 11.2878" stroke="#33B868" stroke-width="2" stroke-miterlimit="10" stroke-linecap="round"/>
<path d="M60.7915 11.2878L61.3544 10.8185" stroke="#33B868" stroke-width="2" stroke-miterlimit="10" stroke-linecap="round"/>
<path d="M61.354 10.8185L61.9169 10.9994" stroke="#33B868" stroke-width="2" stroke-miterlimit="10" stroke-linecap="round"/>
<path d="M61.9165 10.9993L62.4794 11.595" stroke="#33B868" stroke-width="2" stroke-miterlimit="10" stroke-linecap="round"/>
<path d="M62.479 11.5951L63.0419 11.365" stroke="#33B868" stroke-width="2" stroke-miterlimit="10" stroke-linecap="round"/>
<path d="M63.043 11.365L63.6058 12.1302" stroke="#33B868" stroke-width="2" stroke-miterlimit="10" stroke-linecap="round"/>
<path d="M63.6045 12.1302L64.1674 12.4983" stroke="#33B868" stroke-width="2" stroke-miterlimit="10" stroke-linecap="round"/>
<path d="M64.1675 12.498L64.7304 12.4493" stroke="#33B868" stroke-width="2" stroke-miterlimit="10" stroke-linecap="round"/>
<path d="M64.731 12.4497L65.2938 11.374" stroke="#33B868" stroke-width="2" stroke-miterlimit="10" stroke-linecap="round"/>
<path d="M65.2939 11.374L65.8568 11.4843" stroke="#33B868" stroke-width="2" stroke-miterlimit="10" stroke-linecap="round"/>
<path d="M65.8564 11.4843L66.4193 10.7852" stroke="#33B868" stroke-width="2" stroke-miterlimit="10" stroke-linecap="round"/>
<path d="M66.4199 10.7852L66.9828 10.9417" stroke="#33B868" stroke-width="2" stroke-miterlimit="10" stroke-linecap="round"/>
<path d="M66.9829 10.9417L67.5458 11.0875" stroke="#33B868" stroke-width="2" stroke-miterlimit="10" stroke-linecap="round"/>
<path d="M67.5449 11.0877L68.1078 7.03381" stroke="#33B868" stroke-width="2" stroke-miterlimit="10" stroke-linecap="round"/>
<path d="M68.1074 7.03359L68.6703 3.30243" stroke="#33B868" stroke-width="2" stroke-miterlimit="10" stroke-linecap="round"/>
<path d="M68.6714 3.30243L69.2343 3.61106" stroke="#33B868" stroke-width="2" stroke-miterlimit="10" stroke-linecap="round"/>
<path d="M69.2334 3.61117L69.7963 3.37732" stroke="#33B868" stroke-width="2" stroke-miterlimit="10" stroke-linecap="round"/>
<path d="M69.7964 3.37732L70.3593 4.49539" stroke="#33B868" stroke-width="2" stroke-miterlimit="10" stroke-linecap="round"/>
<path d="M70.3599 4.49548L70.9227 4.63642" stroke="#33B868" stroke-width="2" stroke-miterlimit="10" stroke-linecap="round"/>
<path d="M70.9224 4.63631L71.4852 3.63116" stroke="#33B868" stroke-width="2" stroke-miterlimit="10" stroke-linecap="round"/>
<path d="M71.4849 3.63127L72.0477 3.21899" stroke="#33B868" stroke-width="2" stroke-miterlimit="10" stroke-linecap="round"/>
<path d="M72.0488 3.21899L72.6117 3.63131" stroke="#33B868" stroke-width="2" stroke-miterlimit="10" stroke-linecap="round"/>
<path d="M72.6113 3.63116L73.1742 3.88937" stroke="#33B868" stroke-width="2" stroke-miterlimit="10" stroke-linecap="round"/>
<path d="M73.1738 3.8894L73.7367 5.15259" stroke="#33B868" stroke-width="2" stroke-miterlimit="10" stroke-linecap="round"/>
<path d="M73.7373 5.15271L74.3002 4.56903" stroke="#33B868" stroke-width="2" stroke-miterlimit="10" stroke-linecap="round"/>
<path d="M74.3003 4.56892L74.8632 4.06543" stroke="#33B868" stroke-width="2" stroke-miterlimit="10" stroke-linecap="round"/>
<path d="M74.8623 4.06543L75.4252 4.84335" stroke="#33B868" stroke-width="2" stroke-miterlimit="10" stroke-linecap="round"/>
<path d="M75.4248 4.84335L75.9877 3.97327" stroke="#33B868" stroke-width="2" stroke-miterlimit="10" stroke-linecap="round"/>
<path d="M75.9888 3.97323L76.5516 3.15894" stroke="#33B868" stroke-width="2" stroke-miterlimit="10" stroke-linecap="round"/>
<path d="M76.5508 3.15894L77.1137 4.46328" stroke="#33B868" stroke-width="2" stroke-miterlimit="10" stroke-linecap="round"/>
<path d="M77.1138 4.46326L77.6766 5.63454" stroke="#33B868" stroke-width="2" stroke-miterlimit="10" stroke-linecap="round"/>
<path d="M77.6772 5.6348L78.2401 3.97729" stroke="#33B868" stroke-width="2" stroke-miterlimit="10" stroke-linecap="round"/>
<path d="M78.2402 3.97713L78.8031 0.713684" stroke="#33B868" stroke-width="2" stroke-miterlimit="10" stroke-linecap="round"/>
<path d="M78.8027 0.713644L79.3656 0" stroke="#33B868" stroke-width="2" stroke-miterlimit="10" stroke-linecap="round"/>
<path d="M79.3662 0L79.9291 1.02606" stroke="#33B868" stroke-width="2" stroke-miterlimit="10" stroke-linecap="round"/>
<path d="M79.9292 1.02631L80.4921 3.76913" stroke="#33B868" stroke-width="2" stroke-miterlimit="10" stroke-linecap="round"/>
<path d="M80.4907 3.76892L81.0536 4.10007" stroke="#33B868" stroke-width="2" stroke-miterlimit="10" stroke-linecap="round"/>
<path d="M81.0537 4.10006L81.6166 3.20691" stroke="#33B868" stroke-width="2" stroke-miterlimit="10" stroke-linecap="round"/>
<path d="M81.6172 3.20691L82.1801 3.56056" stroke="#33B868" stroke-width="2" stroke-miterlimit="10" stroke-linecap="round"/>
<path d="M82.1797 3.5606L82.7426 2.42072" stroke="#33B868" stroke-width="2" stroke-miterlimit="10" stroke-linecap="round"/>
<path d="M82.7422 2.42072L83.3051 2.90184" stroke="#33B868" stroke-width="2" stroke-miterlimit="10" stroke-linecap="round"/>
<path d="M83.3062 2.90178L83.869 1.7572" stroke="#33B868" stroke-width="2" stroke-miterlimit="10" stroke-linecap="round"/>
<path d="M83.8687 1.7572L84.4315 2.13078" stroke="#33B868" stroke-width="2" stroke-miterlimit="10" stroke-linecap="round"/>
<path d="M84.4307 2.13086L84.9935 2.77399" stroke="#33B868" stroke-width="2" stroke-miterlimit="10" stroke-linecap="round"/>
<path d="M84.9951 2.77374L85.558 3.98966" stroke="#33B868" stroke-width="2" stroke-miterlimit="10" stroke-linecap="round"/>
<path d="M85.5571 3.98981L86.12 4.38236" stroke="#33B868" stroke-width="2" stroke-miterlimit="10" stroke-linecap="round"/>
<path d="M86.1196 4.38247L86.6825 4.3316" stroke="#33B868" stroke-width="2" stroke-miterlimit="10" stroke-linecap="round"/>
<path d="M86.6831 4.3316L87.246 4.36373" stroke="#33B868" stroke-width="2" stroke-miterlimit="10" stroke-linecap="round"/>
<path d="M87.2461 4.36383L87.809 5.12137" stroke="#33B868" stroke-width="2" stroke-miterlimit="10" stroke-linecap="round"/>
<path d="M87.8086 5.12096L88.3715 4.26459" stroke="#33B868" stroke-width="2" stroke-miterlimit="10" stroke-linecap="round"/>
<path d="M88.3711 4.265L88.934 3.82953" stroke="#33B868" stroke-width="2" stroke-miterlimit="10" stroke-linecap="round"/>
<path d="M88.9351 3.82953L89.4979 4.60078" stroke="#33B868" stroke-width="2" stroke-miterlimit="10" stroke-linecap="round"/>
<path d="M89.4971 4.6006L90.0599 4.5318" stroke="#33B868" stroke-width="2" stroke-miterlimit="10" stroke-linecap="round"/>
<path d="M90.0596 4.53179L90.6224 3.39429" stroke="#33B868" stroke-width="2" stroke-miterlimit="10" stroke-linecap="round"/>
<path d="M90.6235 3.39431L91.1864 3.38092" stroke="#33B868" stroke-width="2" stroke-miterlimit="10" stroke-linecap="round"/>
<path d="M91.186 3.38092L91.7489 6.86225" stroke="#33B868" stroke-width="2" stroke-miterlimit="10" stroke-linecap="round"/>
<path d="M91.748 6.8623L92.3109 10.0248" stroke="#33B868" stroke-width="2" stroke-miterlimit="10" stroke-linecap="round"/>
<path d="M92.312 10.0248L92.8749 12.735" stroke="#33B868" stroke-width="2" stroke-miterlimit="10" stroke-linecap="round"/>
<path d="M92.875 12.7349L93.4379 14.69" stroke="#33B868" stroke-width="2" stroke-miterlimit="10" stroke-linecap="round"/>
<path d="M93.437 14.69L93.9999 14.1752" stroke="#33B868" stroke-width="2" stroke-miterlimit="10" stroke-linecap="round"/>
</g>
<defs>
<clipPath id="clip0_1389_3342">
<rect width="94" height="28" fill="white"/>
</clipPath>
</defs>
</svg>
