<svg width="18" height="18" viewBox="0 0 18 18" fill="none" xmlns="http://www.w3.org/2000/svg">
<path d="M14.125 2H3.09207C1.93853 2 1 2.93834 1 4.09207V10.844C1 11.9951 1.93444 12.932 3.08464 12.9361V14.0859C3.08464 14.8936 3.99278 15.3681 4.65581 14.9067L7.48787 12.9361H14.125C15.2785 12.9361 16.2171 11.9975 16.2171 10.844V4.09207C16.2171 2.93834 15.2785 2 14.125 2ZM15.3254 10.844C15.3254 11.5058 14.7869 12.0444 14.125 12.0444H7.20813L3.97626 14.2934V12.0444H3.09207C2.43013 12.0444 1.89163 11.5058 1.89163 10.844V4.09207C1.89163 3.43004 2.43013 2.89163 3.09207 2.89163H14.125C14.7869 2.89163 15.3254 3.43004 15.3254 4.09207V10.844Z" fill="#1E202B" stroke="#1E202B" stroke-width="0.2"/>
<path d="M5.07275 5.59633C5.07275 5.35011 5.27235 5.15051 5.51857 5.15051H11.6985C11.9447 5.15051 12.1443 5.35011 12.1443 5.59633V5.59633C12.1443 5.84254 11.9447 6.04214 11.6985 6.04214H5.51857C5.27235 6.04214 5.07275 5.84254 5.07275 5.59633V5.59633Z" fill="#1E202B"/>
<path d="M5.07275 7.49842C5.07275 7.25221 5.27235 7.05261 5.51857 7.05261H11.6985C11.9447 7.05261 12.1443 7.25221 12.1443 7.49842V7.49842C12.1443 7.74464 11.9447 7.94424 11.6985 7.94424H5.51857C5.27235 7.94424 5.07275 7.74464 5.07275 7.49842V7.49842Z" fill="#1E202B"/>
<path d="M5.07275 9.40052C5.07275 9.15431 5.27235 8.95471 5.51857 8.95471H11.6985C11.9447 8.95471 12.1443 9.15431 12.1443 9.40052V9.40052C12.1443 9.64674 11.9447 9.84634 11.6985 9.84634H5.51857C5.27235 9.84634 5.07275 9.64674 5.07275 9.40052V9.40052Z" fill="#1E202B"/>
</svg>
