<svg width="18" height="18" viewBox="0 0 18 18" fill="none" xmlns="http://www.w3.org/2000/svg">
<path d="M9 15.4555C8.80069 15.4555 8.60854 15.3833 8.45879 15.2521C7.89322 14.7576 7.34795 14.2929 6.86687 13.8829L6.86441 13.8808C5.45396 12.6788 4.23599 11.6408 3.38855 10.6183C2.44124 9.47523 2 8.39142 2 7.20741C2 6.05705 2.39445 4.99577 3.11063 4.21893C3.83534 3.43291 4.82976 3 5.91101 3C6.71915 3 7.45924 3.25549 8.11069 3.75932C8.43945 4.01364 8.73746 4.32489 9 4.68794C9.26265 4.32489 9.56055 4.01364 9.88942 3.75932C10.5409 3.25549 11.281 3 12.0891 3C13.1702 3 14.1648 3.43291 14.8895 4.21893C15.6057 4.99577 16 6.05705 16 7.20741C16 8.39142 15.5589 9.47523 14.6116 10.6182C13.7641 11.6408 12.5462 12.6787 11.136 13.8806C10.6541 14.2912 10.108 14.7566 9.54111 15.2523C9.39146 15.3833 9.1992 15.4555 9 15.4555V15.4555ZM5.91101 3.8201C5.06154 3.8201 4.28117 4.15912 3.71347 4.77478C3.13733 5.39973 2.81999 6.26363 2.81999 7.20741C2.81999 8.20322 3.19009 9.09381 4.01991 10.0951C4.82196 11.0629 6.01494 12.0795 7.39622 13.2567L7.39879 13.2588C7.88168 13.6704 8.42909 14.1369 8.99883 14.6351C9.57198 14.136 10.1202 13.6687 10.6041 13.2565C11.9853 12.0793 13.1781 11.0629 13.9802 10.0951C14.8099 9.09381 15.18 8.20322 15.18 7.20741C15.18 6.26363 14.8627 5.39973 14.2865 4.77478C13.7189 4.15912 12.9385 3.8201 12.0891 3.8201C11.4668 3.8201 10.8955 4.01791 10.391 4.40799C9.94144 4.75577 9.62827 5.1954 9.44466 5.50302C9.35023 5.66121 9.18404 5.75563 9 5.75563C8.81596 5.75563 8.64977 5.66121 8.55534 5.50302C8.37184 5.1954 8.05867 4.75577 7.60899 4.40799C7.10452 4.01791 6.53319 3.8201 5.91101 3.8201V3.8201Z" fill="#1E2331" stroke="#1E202B" stroke-width="0.3"/>
</svg>
