<svg width="24" height="24" viewBox="0 0 24 24" fill="none" xmlns="http://www.w3.org/2000/svg">
<rect width="24" height="24" rx="4" fill="#EFEFEF"/>
<path fill-rule="evenodd" clip-rule="evenodd" d="M13.7508 7.28867L12.8463 4.50468C12.5799 3.68488 11.4201 3.68487 11.1537 4.50469L10.2492 7.28867C9.89178 8.38856 8.86681 9.13324 7.71032 9.13324H4.78307C3.92107 9.13324 3.56267 10.2363 4.26004 10.743L6.62824 12.4635C7.56386 13.1433 7.95536 14.3482 7.59798 15.4481L6.69341 18.2321C6.42704 19.0519 7.36535 19.7336 8.06272 19.227L10.4309 17.5064C11.3665 16.8266 12.6335 16.8266 13.5691 17.5064L15.9373 19.227C16.6347 19.7336 17.573 19.0519 17.3066 18.2321L16.402 15.4481C16.0446 14.3482 16.4361 13.1433 17.3718 12.4635L19.74 10.743C20.4373 10.2363 20.0789 9.13324 19.2169 9.13324H16.2897C15.1332 9.13324 14.1082 8.38856 13.7508 7.28867ZM13.6926 4.22971C13.1598 2.5901 10.8402 2.5901 10.3074 4.22971L9.40287 7.0137C9.16462 7.74696 8.48131 8.24341 7.71032 8.24341H4.78307C3.05907 8.24341 2.34227 10.4495 3.73701 11.4628L6.10521 13.1834C6.72896 13.6366 6.98996 14.4399 6.75171 15.1731L5.84714 17.9571C5.31439 19.5968 7.19101 20.9602 8.58575 19.9469L10.9539 18.2263C11.5777 17.7731 12.4223 17.7731 13.0461 18.2263L15.4143 19.9469C16.809 20.9602 18.6856 19.5967 18.1529 17.9571L17.2483 15.1731C17.01 14.4399 17.271 13.6366 17.8948 13.1834L20.263 11.4628C21.6577 10.4495 20.9409 8.24341 19.2169 8.24341H16.2897C15.5187 8.24341 14.8354 7.74695 14.5971 7.0137L13.6926 4.22971Z" fill="#B1B1B1" stroke="#B1B1B1" stroke-width="0.5"/>
</svg>
