<svg width="24" height="24" viewBox="0 0 24 24" fill="none" xmlns="http://www.w3.org/2000/svg">
<path d="M10.8001 5.39989C8.96134 5.39989 7.16881 5.97584 5.67422 7.04685C4.17963 8.11786 3.05805 9.63013 2.46702 11.3713C1.87598 13.1124 1.84518 14.9949 2.37893 16.7545C2.91268 18.514 3.98417 20.0622 5.44292 21.1815C6.90167 22.3008 8.67439 22.9351 10.5121 22.9953C12.3499 23.0554 14.1603 22.5385 15.6891 21.5169C17.2179 20.4954 18.3884 19.0206 19.0361 17.2998C19.6838 15.5789 19.7761 13.6984 19.3003 11.9223L10.8001 14.1999L10.8001 5.39989Z" fill="#2B50FF"/>
<path d="M21.5716 9.78458C21.5033 8.63096 21.2084 7.50209 20.7039 6.46243C20.1993 5.42277 19.4949 4.49267 18.6308 3.72525C17.7668 2.95782 16.76 2.36809 15.6681 1.98974C14.5761 1.61138 13.4204 1.4518 12.2668 1.52012L12.2664 12L21.5716 9.78458Z" fill="#2B50FF"/>
</svg>
