<svg width="60" height="26" viewBox="0 0 60 26" fill="none" xmlns="http://www.w3.org/2000/svg">
<rect width="60" height="26" rx="13" fill="#FF817C"/>
<path d="M20.412 12.904C21.0093 13.0253 21.4853 13.31 21.84 13.758C22.204 14.1967 22.386 14.7147 22.386 15.312C22.386 16.1427 22.106 16.8007 21.546 17.286C20.9953 17.762 20.1927 18 19.138 18H14.896V8.116H19.054C20.0527 8.116 20.818 8.33533 21.35 8.774C21.8913 9.21267 22.162 9.82867 22.162 10.622C22.162 11.238 21.9987 11.742 21.672 12.134C21.3547 12.526 20.9347 12.7827 20.412 12.904ZM16.87 12.26H18.648C19.1427 12.26 19.516 12.1527 19.768 11.938C20.0293 11.714 20.16 11.3967 20.16 10.986C20.16 10.5753 20.034 10.258 19.782 10.034C19.53 9.81 19.1427 9.698 18.62 9.698H16.87V12.26ZM18.746 16.39C19.2687 16.39 19.67 16.278 19.95 16.054C20.23 15.8207 20.37 15.4847 20.37 15.046C20.37 14.6073 20.2253 14.2713 19.936 14.038C19.656 13.7953 19.2547 13.674 18.732 13.674H16.87V16.39H18.746ZM25.743 9.684V12.246H29.243V13.758H25.743V16.418H29.663V18H23.769V8.116H29.663V9.684H25.743ZM37.8445 8.116V9.684H35.1145V18H33.1405V9.684H30.4245V8.116H37.8445ZM44.9512 16.012H40.9892L40.2892 18H38.2032L41.8432 8.228H44.0972L47.7232 18H45.6372L44.9512 16.012ZM44.4192 14.514L42.9632 10.342L41.5072 14.514H44.4192Z" fill="white"/>
</svg>
