<svg width="17" height="15" viewBox="0 0 17 15" fill="none" xmlns="http://www.w3.org/2000/svg">
<path d="M14.125 1H3.09207C1.93853 1 1 1.93834 1 3.09207V9.84399C1 10.9951 1.93444 11.932 3.08464 11.9361V13.0859C3.08464 13.8936 3.99278 14.3681 4.65581 13.9067L7.48787 11.9361H14.125C15.2785 11.9361 16.2171 10.9975 16.2171 9.84399V3.09207C16.2171 1.93834 15.2785 1 14.125 1ZM15.3254 9.84399C15.3254 10.5058 14.7869 11.0444 14.125 11.0444H7.20813L3.97626 13.2934V11.0444H3.09207C2.43013 11.0444 1.89163 10.5058 1.89163 9.84399V3.09207C1.89163 2.43004 2.43013 1.89163 3.09207 1.89163H14.125C14.7869 1.89163 15.3254 2.43004 15.3254 3.09207V9.84399Z" fill="#1E202B" stroke="#1E202B" stroke-width="0.2"/>
<path d="M5.07275 4.59626C5.07275 4.35005 5.27235 4.15045 5.51857 4.15045H11.6985C11.9447 4.15045 12.1443 4.35005 12.1443 4.59626C12.1443 4.84248 11.9447 5.04208 11.6985 5.04208H5.51857C5.27235 5.04208 5.07275 4.84248 5.07275 4.59626Z" fill="#1E202B"/>
<path d="M5.07275 6.49842C5.07275 6.25221 5.27235 6.05261 5.51857 6.05261H11.6985C11.9447 6.05261 12.1443 6.25221 12.1443 6.49842C12.1443 6.74464 11.9447 6.94424 11.6985 6.94424H5.51857C5.27235 6.94424 5.07275 6.74464 5.07275 6.49842Z" fill="#1E202B"/>
<path d="M5.07275 8.40059C5.07275 8.15437 5.27235 7.95477 5.51857 7.95477H11.6985C11.9447 7.95477 12.1443 8.15437 12.1443 8.40059C12.1443 8.6468 11.9447 8.8464 11.6985 8.8464H5.51857C5.27235 8.8464 5.07275 8.6468 5.07275 8.40059Z" fill="#1E202B"/>
</svg>
