<svg width="18" height="17" viewBox="0 0 18 17" fill="none" xmlns="http://www.w3.org/2000/svg">
<path d="M15.4956 5.56313C14.8327 5.38961 13.2693 5.39134 10.9857 5.33061C11.095 4.8326 11.1193 4.38318 11.1193 3.58498C11.1193 1.6797 9.73114 0 8.5026 0C7.63499 0 6.91834 0.709707 6.90793 1.58079C6.89579 2.65142 6.56609 4.4977 4.78228 5.43472C4.65214 5.50413 4.27733 5.68807 4.22354 5.71236L4.2513 5.73665C3.97193 5.49719 3.58498 5.31152 3.18934 5.31152H1.59467C0.714913 5.31152 0 6.02644 0 6.9062V15.4071C0 16.2851 0.714913 17 1.59467 17H3.18934C3.82097 17 4.35021 16.6183 4.60702 16.0838C4.61223 16.0855 4.62438 16.089 4.63132 16.0907C4.66602 16.0994 4.70767 16.1098 4.75799 16.1237C4.76666 16.1254 4.77187 16.1272 4.78228 16.1289C5.08942 16.2053 5.67766 16.3458 6.93743 16.6356C7.20813 16.6963 8.63275 17 10.1112 17H13.0159C13.9026 17 14.5585 16.6703 14.9195 15.9762C15.2717 15.3585 17.0069 12.0511 17.0052 7.38859C17.0035 6.71706 16.5384 5.86159 15.4956 5.56313ZM3.71859 15.4071C3.71859 15.7003 3.48086 15.938 3.18761 15.938H1.59294C1.29968 15.938 1.06196 15.7003 1.06196 15.4071V6.90793C1.06196 6.61468 1.29968 6.37695 1.59294 6.37695H3.18761C3.48086 6.37695 3.71859 6.61468 3.71859 6.90793V15.4071ZM15.9294 7.72175C15.7073 13.061 13.9824 15.4747 13.9824 15.4747C13.8211 15.7645 13.5625 15.938 13.0142 15.938H10.1094C8.6501 15.938 7.20292 15.6066 7.16475 15.5997C4.95754 15.0913 4.84128 15.0513 4.70246 15.0132L4.78055 7.20813C4.78055 6.40125 4.79963 6.60427 4.78055 6.61468C7.20813 5.60825 7.94733 3.40451 7.96989 1.59467C7.97336 1.34133 8.16944 1.06369 8.50087 1.06369C9.06308 1.06369 10.0556 2.19159 10.0556 3.58671C10.0556 4.84648 10.0053 5.06512 9.56283 6.37695C14.8778 6.37695 14.8396 6.4533 15.3082 6.5765C15.8895 6.74308 15.9398 7.22374 15.9398 7.39032C15.9415 7.57079 15.9346 7.54476 15.9294 7.72175Z" fill="white"/>
</svg>
