<svg width="180" height="33" viewBox="0 0 180 33" fill="none" xmlns="http://www.w3.org/2000/svg">
<g clip-path="url(#clip0_1389_3013)">
<path d="M0.0999268 20.072C0.0369211 20.1208 0 20.196 0 20.2757V30.9857C0 31.6392 0.529788 32.169 1.18336 32.169H34.9004C35.0455 32.169 35.106 31.9834 34.9887 31.8979L11.5921 20.6921C11.0937 20.4534 10.8118 19.8955 10.9557 19.3619C11.02 19.1234 11.1611 18.902 11.3785 18.7381L15.5413 15.4887" fill="#FCFCFC"/>
<path d="M34.5327 26.0538L20.2655 17.8804C20.2315 17.8609 20.1957 17.8447 20.1594 17.8301C19.0771 17.3939 18.9363 15.9192 19.8955 15.2808C19.9523 15.243 20.0149 15.2142 20.08 15.1934L34.6796 7.22652C35.1731 7.06851 35.6776 7.43665 35.6776 7.95483V25.3902C35.6776 25.9778 35.0425 26.3459 34.5327 26.0538Z" fill="#FCFCFC"/>
<path d="M15.8592 0.0547756L0.099884 12.2516C0.0368783 12.3004 0 12.3756 0 12.4553V14.7231C0 14.9366 0.24487 15.0574 0.41427 14.9274L19.2663 0.462751C19.4615 0.312967 19.3556 0.000893951 19.1095 0.000893951H16.0168C15.9598 0.000893951 15.9043 0.0198676 15.8592 0.0547756Z" fill="#EEF0FF"/>
<path d="M5.92357 0.0597362L0.0944444 4.82894C0.0346511 4.87785 0 4.95101 0 5.02828V6.90552C0 7.11852 0.243842 7.23943 0.413414 7.11051L9.1545 0.464069C9.35085 0.314757 9.24527 0.00152778 8.99864 0.00152778H6.08663C6.02718 0.00152778 5.96957 0.022087 5.92357 0.0597362Z" fill="#EEF0FF"/>
<path d="M15.3591 15.6397L34.9681 0.272968C35.0886 0.189189 35.0293 1.8364e-06 34.8825 1.8364e-06H26.1224C26.0654 1.8364e-06 26.0099 0.0189321 25.9648 0.0538401L0.100098 20.0717" fill="#EEF0FF"/>
<path d="M51.2797 23.9861L46.1907 17.3015V23.9861H42.5034V8.84869H46.1907V15.4902L51.2366 8.84869H55.5708L49.7056 16.2665L55.7864 23.9861H51.2797Z" fill="#EEF0FF"/>
<path d="M64.6978 24.1371C63.2746 24.1371 61.9664 23.8064 60.7733 23.1452C59.5945 22.4839 58.6529 21.5639 57.9485 20.3851C57.2585 19.1919 56.9134 17.855 56.9134 16.3743C56.9134 14.8936 57.2585 13.5639 57.9485 12.3851C58.6529 11.2063 59.5945 10.2862 60.7733 9.62497C61.9664 8.96369 63.2746 8.63306 64.6978 8.63306C66.121 8.63306 67.422 8.96369 68.6008 9.62497C69.7939 10.2862 70.7283 11.2063 71.404 12.3851C72.094 13.5639 72.439 14.8936 72.439 16.3743C72.439 17.855 72.094 19.1919 71.404 20.3851C70.714 21.5639 69.7795 22.4839 68.6008 23.1452C67.422 23.8064 66.121 24.1371 64.6978 24.1371ZM64.6978 20.7732C65.9053 20.7732 66.8685 20.3707 67.5873 19.5657C68.3204 18.7606 68.687 17.6968 68.687 16.3743C68.687 15.0374 68.3204 13.9736 67.5873 13.1829C66.8685 12.3779 65.9053 11.9754 64.6978 11.9754C63.4759 11.9754 62.4983 12.3707 61.7652 13.1614C61.0464 13.952 60.687 15.023 60.687 16.3743C60.687 17.7112 61.0464 18.7822 61.7652 19.5872C62.4983 20.3779 63.4759 20.7732 64.6978 20.7732Z" fill="#EEF0FF"/>
<path d="M78.1777 8.84869V23.9861H74.4904V8.84869H78.1777Z" fill="#EEF0FF"/>
<path d="M94.3917 23.9861H90.7043L84.5372 14.6492V23.9861H80.8499V8.84869H84.5372L90.7043 18.2287V8.84869H94.3917V23.9861Z" fill="#EEF0FF"/>
<path d="M107.693 8.85006V11.8042H103.682V23.9875H99.9952V11.8042H95.9844V8.85006H107.693Z" fill="#FCFCFC"/>
<path d="M117.264 23.9875L114.115 18.2732H113.231V23.9875H109.544V8.85006H115.733C116.926 8.85006 117.939 9.0585 118.773 9.47539C119.621 9.89229 120.254 10.4673 120.671 11.2005C121.087 11.9192 121.296 12.7243 121.296 13.6156C121.296 14.6218 121.008 15.5203 120.433 16.311C119.873 17.1016 119.039 17.6623 117.932 17.9929L121.425 23.9875H117.264ZM113.231 15.6641H115.517C116.193 15.6641 116.696 15.4987 117.026 15.1681C117.371 14.8375 117.544 14.3703 117.544 13.7665C117.544 13.1915 117.371 12.7386 117.026 12.408C116.696 12.0774 116.193 11.9121 115.517 11.9121H113.231V15.6641Z" fill="#FCFCFC"/>
<path d="M133.034 21.3137H127.384L126.478 23.9875H122.619L128.096 8.85006H132.365L137.842 23.9875H133.939L133.034 21.3137ZM132.085 18.4673L130.209 12.9255L128.354 18.4673H132.085Z" fill="#FCFCFC"/>
<path d="M138.884 16.3972C138.884 14.9022 139.207 13.5724 139.854 12.408C140.501 11.2292 141.4 10.3164 142.55 9.66946C143.714 9.00819 145.029 8.67755 146.496 8.67755C148.293 8.67755 149.831 9.15194 151.11 10.1007C152.39 11.0495 153.245 12.3433 153.676 13.9821H149.622C149.321 13.3496 148.889 12.868 148.329 12.5374C147.782 12.2067 147.157 12.0414 146.453 12.0414C145.317 12.0414 144.397 12.4368 143.693 13.2274C142.988 14.0181 142.636 15.0747 142.636 16.3972C142.636 17.7198 142.988 18.7764 143.693 19.567C144.397 20.3577 145.317 20.753 146.453 20.753C147.157 20.753 147.782 20.5877 148.329 20.2571C148.889 19.9264 149.321 19.4448 149.622 18.8123H153.676C153.245 20.4511 152.39 21.7449 151.11 22.6937C149.831 23.6281 148.293 24.0953 146.496 24.0953C145.029 24.0953 143.714 23.7719 142.55 23.125C141.4 22.4637 140.501 21.5509 139.854 20.3864C139.207 19.222 138.884 17.8923 138.884 16.3972Z" fill="#FCFCFC"/>
<path d="M164.711 23.9875L159.622 17.3029V23.9875H155.934V8.85006H159.622V15.4916L164.668 8.85006H169.002L163.137 16.2678L169.217 23.9875H164.711Z" fill="#FCFCFC"/>
<path d="M174.129 4.80099V5.7141H172.89V9.47984H171.75V5.7141H170.51V4.80099H174.129Z" fill="#FCFCFC"/>
<path d="M180 4.80099V9.47984H178.86V6.67387L177.814 9.47984H176.894L175.841 6.6672V9.47984H174.701V4.80099H176.048L177.361 8.0402L178.66 4.80099H180Z" fill="#FCFCFC"/>
</g>
<defs>
<clipPath id="clip0_1389_3013">
<rect width="180" height="32.169" fill="white"/>
</clipPath>
</defs>
</svg>
