<svg width="24" height="24" viewBox="0 0 24 24" fill="none" xmlns="http://www.w3.org/2000/svg">
<path d="M9.93132 2.50298C10.5825 0.499007 13.4175 0.499005 14.0687 2.50298L15.1743 5.90563C15.4655 6.80183 16.3006 7.40861 17.2429 7.40861H20.8207C22.9278 7.40861 23.8039 10.1049 22.0992 11.3435L19.2047 13.4464C18.4424 14.0003 18.1234 14.9821 18.4146 15.8783L19.5202 19.2809C20.1713 21.2849 17.8777 22.9513 16.173 21.7128L13.2785 19.6099C12.5162 19.056 11.4838 19.056 10.7215 19.6099L7.82702 21.7128C6.12234 22.9513 3.8287 21.2849 4.47983 19.2809L5.58542 15.8783C5.87661 14.9821 5.55761 14.0003 4.79526 13.4464L1.90079 11.3435C0.19611 10.1049 1.0722 7.40861 3.1793 7.40861H6.75706C7.69938 7.40861 8.53454 6.80183 8.82574 5.90563L9.93132 2.50298Z" fill="#FFBB44"/>
</svg>
