<svg width="24" height="24" viewBox="0 0 24 24" fill="none" xmlns="http://www.w3.org/2000/svg">
<circle cx="12" cy="12" r="12" fill="#8247E5"/>
<path d="M11.7645 9.03413C11.7645 9.44835 12.1003 9.78413 12.5145 9.78413C12.9287 9.78413 13.2645 9.44835 13.2645 9.03413H11.7645ZM12.0241 7.14554L11.6419 7.79083L11.6419 7.79083L12.0241 7.14554ZM8.89479 5.29188L9.27702 4.64659V4.64659L8.89479 5.29188ZM7.90095 5.27729L7.53781 4.62107L7.90095 5.27729ZM4.51581 7.15056L4.87895 7.80678L4.87895 7.80678L4.51581 7.15056ZM4.50319 12.2881L4.13057 12.9389L4.13057 12.9389L4.50319 12.2881ZM7.91107 14.2389L8.28368 13.588H8.28368L7.91107 14.2389ZM8.89585 14.2439L9.26183 14.8986H9.26183L8.89585 14.2439ZM16.4331 10.0302L16.0672 9.37559L16.0672 9.37559L16.4331 10.0302ZM17.4021 10.0263L17.0414 10.6839L17.4021 10.0263ZM20.4809 11.7153L20.1202 12.3728L20.4809 11.7153ZM20.4855 17.0177L20.8497 17.6734L20.8497 17.6734L20.4855 17.0177ZM17.4289 18.7154L17.7931 19.3711L17.4289 18.7154ZM16.4179 18.692L16.0237 19.3301L16.0237 19.3301L16.4179 18.692ZM13.2206 16.7171L13.6148 16.079L13.6148 16.079L13.2206 16.7171ZM13.4962 15C13.4962 14.5858 13.1604 14.25 12.7462 14.25C12.332 14.25 11.9962 14.5858 11.9962 15H13.4962ZM13.2645 9.03413V8.00592H11.7645V9.03413H13.2645ZM12.4064 6.50025L9.27702 4.64659L8.51255 5.93716L11.6419 7.79083L12.4064 6.50025ZM7.53781 4.62107L4.15267 6.49434L4.87895 7.80678L8.26409 5.93352L7.53781 4.62107ZM3.25 8.02552V11.4202H4.75V8.02552H3.25ZM4.13057 12.9389L7.53846 14.8898L8.28368 13.588L4.8758 11.6372L4.13057 12.9389ZM9.26183 14.8986L16.7991 10.6849L16.0672 9.37559L8.52987 13.5893L9.26183 14.8986ZM17.0414 10.6839L20.1202 12.3728L20.8417 11.0577L17.7628 9.36878L17.0414 10.6839ZM20.25 12.592V16.1435H21.75V12.592H20.25ZM20.1214 16.3621L17.0648 18.0597L17.7931 19.3711L20.8497 17.6734L20.1214 16.3621ZM16.812 18.0539L13.6148 16.079L12.8265 17.3552L16.0237 19.3301L16.812 18.0539ZM13.4962 15.8663V15H11.9962V15.8663H13.4962ZM13.6148 16.079C13.5411 16.0335 13.4962 15.953 13.4962 15.8663H11.9962C11.9962 16.473 12.3104 17.0364 12.8265 17.3552L13.6148 16.079ZM17.0648 18.0597C16.9857 18.1037 16.889 18.1014 16.812 18.0539L16.0237 19.3301C16.5626 19.6629 17.2393 19.6786 17.7931 19.3711L17.0648 18.0597ZM20.25 16.1435C20.25 16.2343 20.2008 16.318 20.1214 16.3621L20.8497 17.6734C21.4054 17.3648 21.75 16.7791 21.75 16.1435H20.25ZM20.1202 12.3728C20.2003 12.4167 20.25 12.5007 20.25 12.592H21.75C21.75 11.9531 21.4018 11.365 20.8417 11.0577L20.1202 12.3728ZM16.7991 10.6849C16.8743 10.6428 16.9658 10.6425 17.0414 10.6839L17.7628 9.36878C17.2341 9.07879 16.5935 9.08137 16.0672 9.37559L16.7991 10.6849ZM7.53846 14.8898C8.07156 15.195 8.72565 15.1983 9.26183 14.8986L8.52987 13.5893C8.45328 13.6321 8.35984 13.6316 8.28368 13.588L7.53846 14.8898ZM3.25 11.4202C3.25 12.0477 3.58598 12.6272 4.13057 12.9389L4.8758 11.6372C4.798 11.5926 4.75 11.5098 4.75 11.4202H3.25ZM4.15267 6.49434C3.59568 6.80256 3.25 7.38894 3.25 8.02552H4.75C4.75 7.93458 4.79938 7.85082 4.87895 7.80678L4.15267 6.49434ZM9.27702 4.64659C8.74286 4.33018 8.08103 4.32046 7.53781 4.62107L8.26409 5.93352C8.34169 5.89057 8.43624 5.89196 8.51255 5.93716L9.27702 4.64659ZM13.2645 8.00592C13.2645 7.38769 12.9383 6.81533 12.4064 6.50025L11.6419 7.79083C11.7179 7.83584 11.7645 7.9176 11.7645 8.00592H13.2645Z" fill="white"/>
</svg>
