<svg width="192" height="192" viewBox="0 0 192 192" fill="none" xmlns="http://www.w3.org/2000/svg">
<circle cx="95.9614" cy="95.9615" r="50.9404" transform="rotate(-90 95.9614 95.9615)" fill="#D6F1E1"/>
<path d="M45.021 95.9615C45.021 106.037 48.0086 115.885 53.606 124.262C59.2034 132.64 67.1592 139.169 76.4674 143.024C85.7755 146.88 96.0179 147.889 105.899 145.923C115.781 143.958 124.858 139.106 131.982 131.982C139.106 124.858 143.957 115.781 145.923 105.899C147.889 96.018 146.88 85.7756 143.024 76.4674C139.169 67.1593 132.639 59.2035 124.262 53.6061C115.885 48.0087 106.036 45.0211 95.9614 45.0211L95.9614 95.9615L45.021 95.9615Z" fill="#33B868"/>
<circle cx="95.9614" cy="95.9615" r="43.2993" transform="rotate(-90 95.9614 95.9615)" fill="white"/>
<path d="M87.696 92.016L83.488 102H81.568L85.84 92.224H80.24V90.64H87.696V92.016ZM96.7654 92.144H91.1814V95.504C91.4374 95.1733 91.8 94.912 92.2694 94.72C92.7387 94.5173 93.256 94.416 93.8214 94.416C94.6107 94.416 95.2667 94.5867 95.7894 94.928C96.312 95.2587 96.696 95.7013 96.9414 96.256C97.1974 96.8107 97.3254 97.424 97.3254 98.096C97.3254 99.28 96.9947 100.24 96.3334 100.976C95.672 101.701 94.712 102.064 93.4534 102.064C92.2694 102.064 91.3147 101.749 90.5894 101.12C89.864 100.491 89.4694 99.6533 89.4054 98.608H91.1974C91.2934 99.184 91.528 99.6373 91.9014 99.968C92.2854 100.299 92.7707 100.464 93.3574 100.464C94.0827 100.464 94.6267 100.245 94.9894 99.808C95.352 99.3707 95.5334 98.7893 95.5334 98.064C95.5334 97.3813 95.3467 96.848 94.9734 96.464C94.6 96.0693 94.0667 95.872 93.3734 95.872C92.8827 95.872 92.4507 95.9787 92.0774 96.192C91.7147 96.4053 91.448 96.688 91.2774 97.04H89.5014V90.528H96.7654V92.144ZM101.022 90.544C101.736 90.544 102.318 90.768 102.766 91.216C103.214 91.6533 103.438 92.2507 103.438 93.008C103.438 93.7653 103.214 94.3627 102.766 94.8C102.318 95.2373 101.736 95.456 101.022 95.456C100.307 95.456 99.7204 95.2373 99.2618 94.8C98.8138 94.3627 98.5898 93.7653 98.5898 93.008C98.5898 92.2507 98.8138 91.6533 99.2618 91.216C99.7204 90.768 100.307 90.544 101.022 90.544ZM107.79 90.688L101.406 102H99.6138L106.014 90.688H107.79ZM99.8378 93.008C99.8378 93.4133 99.9444 93.7387 100.158 93.984C100.371 94.2187 100.654 94.336 101.006 94.336C101.358 94.336 101.64 94.2133 101.854 93.968C102.078 93.7227 102.19 93.4027 102.19 93.008C102.19 92.6027 102.078 92.2773 101.854 92.032C101.64 91.7867 101.358 91.664 101.006 91.664C100.654 91.664 100.371 91.7867 100.158 92.032C99.9444 92.2773 99.8378 92.6027 99.8378 93.008ZM106.398 97.232C107.112 97.232 107.694 97.4507 108.142 97.888C108.6 98.3253 108.83 98.9227 108.83 99.68C108.83 100.437 108.6 101.04 108.142 101.488C107.694 101.925 107.112 102.144 106.398 102.144C105.694 102.144 105.112 101.925 104.654 101.488C104.206 101.04 103.982 100.437 103.982 99.68C103.982 98.9333 104.206 98.3413 104.654 97.904C105.112 97.456 105.694 97.232 106.398 97.232ZM105.23 99.68C105.23 100.085 105.336 100.411 105.55 100.656C105.763 100.901 106.046 101.024 106.398 101.024C106.75 101.024 107.032 100.901 107.246 100.656C107.47 100.411 107.582 100.085 107.582 99.68C107.582 99.2853 107.47 98.9653 107.246 98.72C107.032 98.4747 106.75 98.352 106.398 98.352C106.046 98.352 105.763 98.4747 105.55 98.72C105.336 98.9653 105.23 99.2853 105.23 99.68Z" fill="#33B868"/>
</svg>
